<svg xmlns="http://www.w3.org/2000/svg" fill="none" viewBox="0 0 128 128">
    <!-- Pizza base -->
    <circle cx="64" cy="64" r="55" fill="#FFB84D" stroke="#D4861A" stroke-width="2"/>
    
    <!-- Cheese -->
    <circle cx="64" cy="64" r="50" fill="#FFF3A0"/>
    
    <!-- Pepperoni slices -->
    <circle cx="45" cy="45" r="8" fill="#C41E3A"/>
    <circle cx="75" cy="35" r="7" fill="#C41E3A"/>
    <circle cx="85" cy="65" r="8" fill="#C41E3A"/>
    <circle cx="50" cy="80" r="7" fill="#C41E3A"/>
    <circle cx="35" cy="70" r="6" fill="#C41E3A"/>
    <circle cx="70" cy="85" r="7" fill="#C41E3A"/>
    <circle cx="90" cy="45" r="6" fill="#C41E3A"/>
    <circle cx="30" cy="50" r="7" fill="#C41E3A"/>
    <circle cx="60" cy="55" r="6" fill="#C41E3A"/>
    <circle cx="80" cy="80" r="6" fill="#C41E3A"/>
    <circle cx="45" cy="65" r="5" fill="#C41E3A"/>
    <circle cx="65" cy="40" r="6" fill="#C41E3A"/>
    
    <!-- Pepperoni highlights for depth -->
    <circle cx="47" cy="43" r="2.5" fill="#E63946" opacity="0.8"/>
    <circle cx="77" cy="33" r="2" fill="#E63946" opacity="0.8"/>
    <circle cx="87" cy="63" r="2.5" fill="#E63946" opacity="0.8"/>
    <circle cx="52" cy="78" r="2" fill="#E63946" opacity="0.8"/>
    <circle cx="72" cy="83" r="2" fill="#E63946" opacity="0.8"/>
    <circle cx="62" cy="53" r="2" fill="#E63946" opacity="0.8"/>
    
    <style>
        @media (prefers-color-scheme: dark) {
            circle[stroke="#D4861A"] { stroke: #FFB84D; }
        }
    </style>
</svg>